<svg width="313" height="193" viewBox="0 0 313 193" fill="none" xmlns="http://www.w3.org/2000/svg">
<g filter="url(#filter0_d_436_64)">
<mask id="path-1-outside-1_436_64" maskUnits="userSpaceOnUse" x="3" y="126" width="306" height="60" fill="black">
<rect fill="white" x="3" y="126" width="306" height="60"/>
<path d="M38.336 143.688H38.144L34.88 150.216L26.176 166.024L17.664 150.28L14.272 143.24H14.08V173H4.928V128.328H15.232L26.176 149.256H26.304L37.12 128.328H47.488V173H38.336V143.688ZM84.8855 173L81.6855 162.376H66.7735L63.5735 173H53.7175L68.4375 128.328H80.4695L94.9975 173H84.8855ZM74.3255 137.16H74.0055L69.0775 154.12H79.3175L74.3255 137.16ZM117.289 173.768C114.259 173.768 111.529 173.299 109.097 172.36C106.665 171.379 104.595 169.949 102.889 168.072C101.182 166.152 99.8592 163.784 98.9205 160.968C97.9818 158.109 97.5125 154.781 97.5125 150.984C97.5125 147.229 97.9818 143.901 98.9205 141C99.8592 138.056 101.182 135.603 102.889 133.64C104.595 131.635 106.665 130.12 109.097 129.096C111.529 128.072 114.259 127.56 117.289 127.56C121.427 127.56 124.841 128.413 127.529 130.12C130.217 131.784 132.371 134.429 133.993 138.056L125.609 142.408C125.011 140.531 124.073 139.037 122.793 137.928C121.555 136.776 119.721 136.2 117.289 136.2C114.43 136.2 112.126 137.139 110.377 139.016C108.67 140.851 107.817 143.539 107.817 147.08V154.248C107.817 157.789 108.67 160.499 110.377 162.376C112.126 164.211 114.43 165.128 117.289 165.128C119.678 165.128 121.577 164.488 122.985 163.208C124.435 161.885 125.502 160.307 126.185 158.472L134.121 163.08C132.457 166.493 130.259 169.139 127.529 171.016C124.841 172.851 121.427 173.768 117.289 173.768ZM167.68 154.696H150.656V173H140.928V128.328H150.656V146.12H167.68V128.328H177.408V173H167.68V154.696ZM196.457 128.328V155.72C196.457 158.877 197.075 161.245 198.312 162.824C199.55 164.36 201.619 165.128 204.521 165.128C207.422 165.128 209.491 164.36 210.729 162.824C211.966 161.245 212.585 158.877 212.585 155.72V128.328H222.057V154.696C222.057 157.981 221.737 160.84 221.097 163.272C220.499 165.661 219.497 167.645 218.089 169.224C216.681 170.76 214.867 171.912 212.649 172.68C210.43 173.405 207.721 173.768 204.521 173.768C201.321 173.768 198.611 173.405 196.393 172.68C194.174 171.912 192.361 170.76 190.953 169.224C189.545 167.645 188.521 165.661 187.881 163.272C187.283 160.84 186.985 157.981 186.985 154.696V128.328H196.457ZM261.438 184.776H255.422C251.966 184.776 249.449 183.965 247.87 182.344C246.291 180.723 245.502 178.376 245.502 175.304V173.448C240.723 172.595 236.926 170.269 234.11 166.472C231.337 162.632 229.95 157.363 229.95 150.664C229.95 146.867 230.419 143.539 231.358 140.68C232.297 137.779 233.619 135.368 235.326 133.448C237.033 131.485 239.102 130.013 241.534 129.032C243.966 128.051 246.654 127.56 249.598 127.56C252.542 127.56 255.23 128.051 257.662 129.032C260.094 130.013 262.163 131.485 263.87 133.448C265.577 135.368 266.899 137.779 267.838 140.68C268.777 143.539 269.246 146.867 269.246 150.664C269.246 157.149 267.923 162.291 265.278 166.088C262.675 169.885 259.113 172.275 254.59 173.256V176.84H261.438V184.776ZM249.598 165.128C252.542 165.128 254.825 164.168 256.446 162.248C258.11 160.328 258.942 157.576 258.942 153.992V147.336C258.942 143.752 258.11 141 256.446 139.08C254.825 137.16 252.542 136.2 249.598 136.2C246.654 136.2 244.35 137.16 242.686 139.08C241.065 141 240.254 143.752 240.254 147.336V153.992C240.254 157.576 241.065 160.328 242.686 162.248C244.35 164.168 246.654 165.128 249.598 165.128ZM277.366 173V128.328H307.766V136.968H287.094V146.12H304.822V154.696H287.094V164.36H307.766V173H277.366Z"/>
</mask>
<path d="M38.336 143.688H38.144L34.88 150.216L26.176 166.024L17.664 150.28L14.272 143.24H14.08V173H4.928V128.328H15.232L26.176 149.256H26.304L37.12 128.328H47.488V173H38.336V143.688ZM84.8855 173L81.6855 162.376H66.7735L63.5735 173H53.7175L68.4375 128.328H80.4695L94.9975 173H84.8855ZM74.3255 137.16H74.0055L69.0775 154.12H79.3175L74.3255 137.16ZM117.289 173.768C114.259 173.768 111.529 173.299 109.097 172.36C106.665 171.379 104.595 169.949 102.889 168.072C101.182 166.152 99.8592 163.784 98.9205 160.968C97.9818 158.109 97.5125 154.781 97.5125 150.984C97.5125 147.229 97.9818 143.901 98.9205 141C99.8592 138.056 101.182 135.603 102.889 133.64C104.595 131.635 106.665 130.12 109.097 129.096C111.529 128.072 114.259 127.56 117.289 127.56C121.427 127.56 124.841 128.413 127.529 130.12C130.217 131.784 132.371 134.429 133.993 138.056L125.609 142.408C125.011 140.531 124.073 139.037 122.793 137.928C121.555 136.776 119.721 136.2 117.289 136.2C114.43 136.2 112.126 137.139 110.377 139.016C108.67 140.851 107.817 143.539 107.817 147.08V154.248C107.817 157.789 108.67 160.499 110.377 162.376C112.126 164.211 114.43 165.128 117.289 165.128C119.678 165.128 121.577 164.488 122.985 163.208C124.435 161.885 125.502 160.307 126.185 158.472L134.121 163.08C132.457 166.493 130.259 169.139 127.529 171.016C124.841 172.851 121.427 173.768 117.289 173.768ZM167.68 154.696H150.656V173H140.928V128.328H150.656V146.12H167.68V128.328H177.408V173H167.68V154.696ZM196.457 128.328V155.72C196.457 158.877 197.075 161.245 198.312 162.824C199.55 164.36 201.619 165.128 204.521 165.128C207.422 165.128 209.491 164.36 210.729 162.824C211.966 161.245 212.585 158.877 212.585 155.72V128.328H222.057V154.696C222.057 157.981 221.737 160.84 221.097 163.272C220.499 165.661 219.497 167.645 218.089 169.224C216.681 170.76 214.867 171.912 212.649 172.68C210.43 173.405 207.721 173.768 204.521 173.768C201.321 173.768 198.611 173.405 196.393 172.68C194.174 171.912 192.361 170.76 190.953 169.224C189.545 167.645 188.521 165.661 187.881 163.272C187.283 160.84 186.985 157.981 186.985 154.696V128.328H196.457ZM261.438 184.776H255.422C251.966 184.776 249.449 183.965 247.87 182.344C246.291 180.723 245.502 178.376 245.502 175.304V173.448C240.723 172.595 236.926 170.269 234.11 166.472C231.337 162.632 229.95 157.363 229.95 150.664C229.95 146.867 230.419 143.539 231.358 140.68C232.297 137.779 233.619 135.368 235.326 133.448C237.033 131.485 239.102 130.013 241.534 129.032C243.966 128.051 246.654 127.56 249.598 127.56C252.542 127.56 255.23 128.051 257.662 129.032C260.094 130.013 262.163 131.485 263.87 133.448C265.577 135.368 266.899 137.779 267.838 140.68C268.777 143.539 269.246 146.867 269.246 150.664C269.246 157.149 267.923 162.291 265.278 166.088C262.675 169.885 259.113 172.275 254.59 173.256V176.84H261.438V184.776ZM249.598 165.128C252.542 165.128 254.825 164.168 256.446 162.248C258.11 160.328 258.942 157.576 258.942 153.992V147.336C258.942 143.752 258.11 141 256.446 139.08C254.825 137.16 252.542 136.2 249.598 136.2C246.654 136.2 244.35 137.16 242.686 139.08C241.065 141 240.254 143.752 240.254 147.336V153.992C240.254 157.576 241.065 160.328 242.686 162.248C244.35 164.168 246.654 165.128 249.598 165.128ZM277.366 173V128.328H307.766V136.968H287.094V146.12H304.822V154.696H287.094V164.36H307.766V173H277.366Z" fill="#352F2F"/>
<path d="M38.336 143.688H39.336V142.688H38.336V143.688ZM38.144 143.688V142.688H37.526L37.2496 143.241L38.144 143.688ZM34.88 150.216L35.756 150.698L35.7656 150.681L35.7744 150.663L34.88 150.216ZM26.176 166.024L25.2963 166.5L26.168 168.112L27.052 166.506L26.176 166.024ZM17.664 150.28L16.7631 150.714L16.7732 150.735L16.7843 150.756L17.664 150.28ZM14.272 143.24L15.1729 142.806L14.9002 142.24H14.272V143.24ZM14.08 143.24V142.24H13.08V143.24H14.08ZM14.08 173V174H15.08V173H14.08ZM4.928 173H3.928V174H4.928V173ZM4.928 128.328V127.328H3.928V128.328H4.928ZM15.232 128.328L16.1181 127.865L15.8375 127.328H15.232V128.328ZM26.176 149.256L25.2899 149.719L25.5705 150.256H26.176V149.256ZM26.304 149.256V150.256H26.9128L27.1924 149.715L26.304 149.256ZM37.12 128.328V127.328H36.5112L36.2316 127.869L37.12 128.328ZM47.488 128.328H48.488V127.328H47.488V128.328ZM47.488 173V174H48.488V173H47.488ZM38.336 173H37.336V174H38.336V173ZM38.336 142.688H38.144V144.688H38.336V142.688ZM37.2496 143.241L33.9856 149.769L35.7744 150.663L39.0384 144.135L37.2496 143.241ZM34.004 149.734L25.3 165.542L27.052 166.506L35.756 150.698L34.004 149.734ZM27.0557 165.548L18.5437 149.804L16.7843 150.756L25.2963 166.5L27.0557 165.548ZM18.5649 149.846L15.1729 142.806L13.3711 143.674L16.7631 150.714L18.5649 149.846ZM14.272 142.24H14.08V144.24H14.272V142.24ZM13.08 143.24V173H15.08V143.24H13.08ZM14.08 172H4.928V174H14.08V172ZM5.928 173V128.328H3.928V173H5.928ZM4.928 129.328H15.232V127.328H4.928V129.328ZM14.3459 128.791L25.2899 149.719L27.0622 148.793L16.1181 127.865L14.3459 128.791ZM26.176 150.256H26.304V148.256H26.176V150.256ZM27.1924 149.715L38.0084 128.787L36.2316 127.869L25.4156 148.797L27.1924 149.715ZM37.12 129.328H47.488V127.328H37.12V129.328ZM46.488 128.328V173H48.488V128.328H46.488ZM47.488 172H38.336V174H47.488V172ZM39.336 173V143.688H37.336V173H39.336ZM84.8855 173L83.928 173.288L84.1423 174H84.8855V173ZM81.6855 162.376L82.643 162.088L82.4287 161.376H81.6855V162.376ZM66.7735 162.376V161.376H66.0303L65.816 162.088L66.7735 162.376ZM63.5735 173V174H64.3167L64.531 173.288L63.5735 173ZM53.7175 173L52.7677 172.687L52.3351 174H53.7175V173ZM68.4375 128.328V127.328H67.7141L67.4877 128.015L68.4375 128.328ZM80.4695 128.328L81.4205 128.019L81.1958 127.328H80.4695V128.328ZM94.9975 173V174H96.3743L95.9485 172.691L94.9975 173ZM74.3255 137.16L75.2848 136.878L75.0736 136.16H74.3255V137.16ZM74.0055 137.16V136.16H73.2547L73.0452 136.881L74.0055 137.16ZM69.0775 154.12L68.1172 153.841L67.7456 155.12H69.0775V154.12ZM79.3175 154.12V155.12H80.6543L80.2768 153.838L79.3175 154.12ZM85.843 172.712L82.643 162.088L80.728 162.664L83.928 173.288L85.843 172.712ZM81.6855 161.376H66.7735V163.376H81.6855V161.376ZM65.816 162.088L62.616 172.712L64.531 173.288L67.731 162.664L65.816 162.088ZM63.5735 172H53.7175V174H63.5735V172ZM54.6673 173.313L69.3873 128.641L67.4877 128.015L52.7677 172.687L54.6673 173.313ZM68.4375 129.328H80.4695V127.328H68.4375V129.328ZM79.5185 128.637L94.0465 173.309L95.9485 172.691L81.4205 128.019L79.5185 128.637ZM94.9975 172H84.8855V174H94.9975V172ZM74.3255 136.16H74.0055V138.16H74.3255V136.16ZM73.0452 136.881L68.1172 153.841L70.0378 154.399L74.9658 137.439L73.0452 136.881ZM69.0775 155.12H79.3175V153.12H69.0775V155.12ZM80.2768 153.838L75.2848 136.878L73.3662 137.442L78.3582 154.402L80.2768 153.838ZM109.097 172.36L108.722 173.287L108.729 173.29L108.736 173.293L109.097 172.36ZM102.889 168.072L102.141 168.736L102.149 168.745L102.889 168.072ZM98.9205 160.968L97.9704 161.28L97.9718 161.284L98.9205 160.968ZM98.9205 141L99.872 141.308L99.8732 141.304L98.9205 141ZM102.889 133.64L103.643 134.296L103.65 134.288L102.889 133.64ZM109.097 129.096L108.708 128.174L108.708 128.174L109.097 129.096ZM127.529 130.12L126.992 130.964L127.002 130.97L127.529 130.12ZM133.993 138.056L134.453 138.944L135.29 138.509L134.905 137.648L133.993 138.056ZM125.609 142.408L124.656 142.711L125.016 143.842L126.069 143.296L125.609 142.408ZM122.793 137.928L122.111 138.66L122.124 138.672L122.138 138.684L122.793 137.928ZM110.377 139.016L109.645 138.334L109.644 138.335L110.377 139.016ZM110.377 162.376L109.637 163.049L109.645 163.057L109.653 163.066L110.377 162.376ZM122.985 163.208L123.657 163.948L123.658 163.947L122.985 163.208ZM126.185 158.472L126.687 157.607L125.661 157.012L125.247 158.123L126.185 158.472ZM134.121 163.08L135.019 163.518L135.427 162.682L134.623 162.215L134.121 163.08ZM127.529 171.016L128.092 171.842L128.095 171.84L127.529 171.016ZM117.289 172.768C114.363 172.768 111.757 172.315 109.457 171.427L108.736 173.293C111.3 174.282 114.156 174.768 117.289 174.768V172.768ZM109.471 171.433C107.173 170.506 105.23 169.162 103.628 167.399L102.149 168.745C103.96 170.737 106.156 172.252 108.722 173.287L109.471 171.433ZM103.636 167.408C102.032 165.603 100.772 163.359 99.8692 160.652L97.9718 161.284C98.9467 164.209 100.332 166.701 102.141 168.736L103.636 167.408ZM99.8706 160.656C98.9723 157.92 98.5125 154.702 98.5125 150.984H96.5125C96.5125 154.861 96.9913 158.298 97.9704 161.28L99.8706 160.656ZM98.5125 150.984C98.5125 147.311 98.9719 144.09 99.8719 141.308L97.9691 140.692C96.9918 143.713 96.5125 147.148 96.5125 150.984H98.5125ZM99.8732 141.304C100.778 138.466 102.041 136.139 103.643 134.296L102.134 132.984C100.323 135.067 98.9401 137.646 97.9678 140.696L99.8732 141.304ZM103.65 134.288C105.255 132.402 107.196 130.981 109.485 130.018L108.708 128.174C106.133 129.259 103.935 130.867 102.127 132.992L103.65 134.288ZM109.485 130.018C111.777 129.052 114.373 128.56 117.289 128.56V126.56C114.145 126.56 111.28 127.092 108.708 128.174L109.485 130.018ZM117.289 128.56C121.293 128.56 124.506 129.386 126.992 130.964L128.065 129.276C125.175 127.441 121.561 126.56 117.289 126.56V128.56ZM127.002 130.97C129.481 132.505 131.519 134.973 133.08 138.464L134.905 137.648C133.223 133.885 130.952 131.063 128.055 129.27L127.002 130.97ZM133.532 137.168L125.148 141.52L126.069 143.296L134.453 138.944L133.532 137.168ZM126.561 142.105C125.918 140.081 124.888 138.421 123.447 137.172L122.138 138.684C123.257 139.654 124.105 140.98 124.656 142.711L126.561 142.105ZM123.474 137.196C121.984 135.809 119.863 135.2 117.289 135.2V137.2C119.578 137.2 121.126 137.743 122.111 138.66L123.474 137.196ZM117.289 135.2C114.187 135.2 111.606 136.23 109.645 138.334L111.108 139.698C112.646 138.048 114.672 137.2 117.289 137.2V135.2ZM109.644 138.335C107.706 140.419 106.817 143.39 106.817 147.08H108.817C108.817 143.687 109.634 141.282 111.109 139.697L109.644 138.335ZM106.817 147.08V154.248H108.817V147.08H106.817ZM106.817 154.248C106.817 157.939 107.706 160.925 109.637 163.049L111.116 161.703C109.633 160.072 108.817 157.639 108.817 154.248H106.817ZM109.653 163.066C111.616 165.125 114.195 166.128 117.289 166.128V164.128C114.665 164.128 112.636 163.297 111.1 161.686L109.653 163.066ZM117.289 166.128C119.86 166.128 122.021 165.435 123.657 163.948L122.312 162.468C121.132 163.541 119.495 164.128 117.289 164.128V166.128ZM123.658 163.947C125.226 162.517 126.383 160.805 127.122 158.821L125.247 158.123C124.62 159.808 123.644 161.253 122.311 162.469L123.658 163.947ZM125.682 159.337L133.618 163.945L134.623 162.215L126.687 157.607L125.682 159.337ZM133.222 162.642C131.622 165.923 129.531 168.426 126.962 170.192L128.095 171.84C130.988 169.851 133.291 167.064 135.019 163.518L133.222 162.642ZM126.965 170.19C124.483 171.884 121.281 172.768 117.289 172.768V174.768C121.574 174.768 125.198 173.817 128.092 171.842L126.965 170.19ZM167.68 154.696H168.68V153.696H167.68V154.696ZM150.656 154.696V153.696H149.656V154.696H150.656ZM150.656 173V174H151.656V173H150.656ZM140.928 173H139.928V174H140.928V173ZM140.928 128.328V127.328H139.928V128.328H140.928ZM150.656 128.328H151.656V127.328H150.656V128.328ZM150.656 146.12H149.656V147.12H150.656V146.12ZM167.68 146.12V147.12H168.68V146.12H167.68ZM167.68 128.328V127.328H166.68V128.328H167.68ZM177.408 128.328H178.408V127.328H177.408V128.328ZM177.408 173V174H178.408V173H177.408ZM167.68 173H166.68V174H167.68V173ZM167.68 153.696H150.656V155.696H167.68V153.696ZM149.656 154.696V173H151.656V154.696H149.656ZM150.656 172H140.928V174H150.656V172ZM141.928 173V128.328H139.928V173H141.928ZM140.928 129.328H150.656V127.328H140.928V129.328ZM149.656 128.328V146.12H151.656V128.328H149.656ZM150.656 147.12H167.68V145.12H150.656V147.12ZM168.68 146.12V128.328H166.68V146.12H168.68ZM167.68 129.328H177.408V127.328H167.68V129.328ZM176.408 128.328V173H178.408V128.328H176.408ZM177.408 172H167.68V174H177.408V172ZM168.68 173V154.696H166.68V173H168.68ZM196.457 128.328H197.457V127.328H196.457V128.328ZM198.312 162.824L197.525 163.441L197.534 163.451L198.312 162.824ZM210.729 162.824L211.507 163.451L211.516 163.441L210.729 162.824ZM212.585 128.328V127.328H211.585V128.328H212.585ZM222.057 128.328H223.057V127.328H222.057V128.328ZM221.097 163.272L220.129 163.017L220.126 163.029L221.097 163.272ZM218.089 169.224L218.826 169.9L218.835 169.89L218.089 169.224ZM212.649 172.68L212.959 173.63L212.967 173.628L212.976 173.625L212.649 172.68ZM196.393 172.68L196.065 173.625L196.074 173.628L196.082 173.63L196.393 172.68ZM190.953 169.224L190.206 169.89L190.215 169.9L190.953 169.224ZM187.881 163.272L186.909 163.511L186.912 163.521L186.915 163.531L187.881 163.272ZM186.985 128.328V127.328H185.985V128.328H186.985ZM195.457 128.328V155.72H197.457V128.328H195.457ZM195.457 155.72C195.457 158.981 196.091 161.61 197.525 163.441L199.1 162.207C198.06 160.88 197.457 158.774 197.457 155.72H195.457ZM197.534 163.451C199.037 165.318 201.464 166.128 204.521 166.128V164.128C201.775 164.128 200.063 163.402 199.091 162.197L197.534 163.451ZM204.521 166.128C207.577 166.128 210.004 165.318 211.507 163.451L209.95 162.197C208.978 163.402 207.266 164.128 204.521 164.128V166.128ZM211.516 163.441C212.95 161.61 213.585 158.981 213.585 155.72H211.585C211.585 158.774 210.981 160.88 209.941 162.207L211.516 163.441ZM213.585 155.72V128.328H211.585V155.72H213.585ZM212.585 129.328H222.057V127.328H212.585V129.328ZM221.057 128.328V154.696H223.057V128.328H221.057ZM221.057 154.696C221.057 157.92 220.742 160.689 220.129 163.018L222.064 163.526C222.731 160.991 223.057 158.043 223.057 154.696H221.057ZM220.126 163.029C219.562 165.288 218.626 167.119 217.342 168.558L218.835 169.89C220.367 168.172 221.437 166.035 222.067 163.515L220.126 163.029ZM217.351 168.548C216.069 169.947 214.403 171.014 212.321 171.735L212.976 173.625C215.331 172.81 217.292 171.573 218.826 169.9L217.351 168.548ZM212.338 171.73C210.249 172.412 207.651 172.768 204.521 172.768V174.768C207.79 174.768 210.611 174.398 212.959 173.63L212.338 171.73ZM204.521 172.768C201.39 172.768 198.792 172.412 196.703 171.73L196.082 173.63C198.43 174.398 201.251 174.768 204.521 174.768V172.768ZM196.72 171.735C194.638 171.014 192.972 169.947 191.69 168.548L190.215 169.9C191.749 171.573 193.71 172.81 196.065 173.625L196.72 171.735ZM191.699 168.558C190.411 167.115 189.453 165.277 188.846 163.013L186.915 163.531C187.588 166.045 188.678 168.176 190.206 169.89L191.699 168.558ZM188.852 163.033C188.278 160.699 187.985 157.924 187.985 154.696H185.985C185.985 158.038 186.288 160.981 186.909 163.511L188.852 163.033ZM187.985 154.696V128.328H185.985V154.696H187.985ZM186.985 129.328H196.457V127.328H186.985V129.328ZM261.438 184.776V185.776H262.438V184.776H261.438ZM247.87 182.344L247.154 183.042L247.154 183.042L247.87 182.344ZM245.502 173.448H246.502V172.611L245.678 172.464L245.502 173.448ZM234.11 166.472L233.299 167.058L233.307 167.068L234.11 166.472ZM231.358 140.68L232.308 140.992L232.309 140.988L231.358 140.68ZM235.326 133.448L236.073 134.112L236.081 134.104L235.326 133.448ZM241.534 129.032L241.16 128.105L241.16 128.105L241.534 129.032ZM257.662 129.032L257.288 129.959L257.288 129.959L257.662 129.032ZM263.87 133.448L263.115 134.104L263.123 134.112L263.87 133.448ZM267.838 140.68L266.887 140.988L266.888 140.992L267.838 140.68ZM265.278 166.088L264.457 165.516L264.453 165.523L265.278 166.088ZM254.59 173.256L254.378 172.279L253.59 172.45V173.256H254.59ZM254.59 176.84H253.59V177.84H254.59V176.84ZM261.438 176.84H262.438V175.84H261.438V176.84ZM256.446 162.248L255.69 161.593L255.682 161.603L256.446 162.248ZM256.446 139.08L255.682 139.725L255.69 139.735L256.446 139.08ZM242.686 139.08L241.93 138.425L241.922 138.435L242.686 139.08ZM242.686 162.248L241.922 162.893L241.93 162.903L242.686 162.248ZM261.438 183.776H255.422V185.776H261.438V183.776ZM255.422 183.776C252.096 183.776 249.898 182.993 248.586 181.646L247.154 183.042C249 184.938 251.836 185.776 255.422 185.776V183.776ZM248.586 181.646C247.247 180.27 246.502 178.211 246.502 175.304H244.502C244.502 178.541 245.336 181.175 247.154 183.042L248.586 181.646ZM246.502 175.304V173.448H244.502V175.304H246.502ZM245.678 172.464C241.143 171.654 237.573 169.463 234.913 165.876L233.307 167.068C236.279 171.076 240.304 173.536 245.326 174.432L245.678 172.464ZM234.921 165.887C232.312 162.274 230.95 157.237 230.95 150.664H228.95C228.95 157.489 230.361 162.99 233.299 167.057L234.921 165.887ZM230.95 150.664C230.95 146.946 231.41 143.728 232.308 140.992L230.408 140.368C229.429 143.35 228.95 146.787 228.95 150.664H230.95ZM232.309 140.988C233.213 138.194 234.474 135.911 236.073 134.112L234.579 132.784C232.764 134.825 231.38 137.363 230.407 140.372L232.309 140.988ZM236.081 134.104C237.683 132.262 239.621 130.882 241.908 129.959L241.16 128.105C238.583 129.145 236.383 130.709 234.571 132.792L236.081 134.104ZM241.908 129.959C244.208 129.032 246.767 128.56 249.598 128.56V126.56C246.541 126.56 243.724 127.07 241.16 128.105L241.908 129.959ZM249.598 128.56C252.429 128.56 254.988 129.032 257.288 129.959L258.036 128.105C255.472 127.07 252.655 126.56 249.598 126.56V128.56ZM257.288 129.959C259.575 130.882 261.513 132.262 263.115 134.104L264.625 132.792C262.813 130.709 260.613 129.145 258.036 128.105L257.288 129.959ZM263.123 134.112C264.722 135.911 265.983 138.194 266.887 140.988L268.789 140.372C267.816 137.363 266.432 134.825 264.617 132.784L263.123 134.112ZM266.888 140.992C267.786 143.728 268.246 146.946 268.246 150.664H270.246C270.246 146.787 269.767 143.35 268.788 140.368L266.888 140.992ZM268.246 150.664C268.246 157.024 266.948 161.942 264.457 165.516L266.099 166.66C268.899 162.639 270.246 157.274 270.246 150.664H268.246ZM264.453 165.523C261.996 169.108 258.653 171.351 254.378 172.279L254.802 174.233C259.573 173.198 263.355 170.662 266.103 166.653L264.453 165.523ZM253.59 173.256V176.84H255.59V173.256H253.59ZM254.59 177.84H261.438V175.84H254.59V177.84ZM260.438 176.84V184.776H262.438V176.84H260.438ZM249.598 166.128C252.78 166.128 255.365 165.078 257.21 162.893L255.682 161.603C254.284 163.258 252.304 164.128 249.598 164.128V166.128ZM257.202 162.903C259.077 160.739 259.942 157.719 259.942 153.992H257.942C257.942 157.433 257.143 159.917 255.69 161.593L257.202 162.903ZM259.942 153.992V147.336H257.942V153.992H259.942ZM259.942 147.336C259.942 143.609 259.077 140.589 257.202 138.425L255.69 139.735C257.143 141.411 257.942 143.895 257.942 147.336H259.942ZM257.21 138.435C255.365 136.25 252.78 135.2 249.598 135.2V137.2C252.304 137.2 254.284 138.07 255.682 139.725L257.21 138.435ZM249.598 135.2C246.415 135.2 243.815 136.25 241.93 138.425L243.442 139.735C244.885 138.07 246.893 137.2 249.598 137.2V135.2ZM241.922 138.435C240.095 140.599 239.254 143.615 239.254 147.336H241.254C241.254 143.889 242.035 141.401 243.45 139.725L241.922 138.435ZM239.254 147.336V153.992H241.254V147.336H239.254ZM239.254 153.992C239.254 157.713 240.095 160.729 241.922 162.893L243.45 161.603C242.035 159.927 241.254 157.439 241.254 153.992H239.254ZM241.93 162.903C243.815 165.078 246.415 166.128 249.598 166.128V164.128C246.893 164.128 244.885 163.258 243.442 161.593L241.93 162.903ZM277.366 173H276.366V174H277.366V173ZM277.366 128.328V127.328H276.366V128.328H277.366ZM307.766 128.328H308.766V127.328H307.766V128.328ZM307.766 136.968V137.968H308.766V136.968H307.766ZM287.094 136.968V135.968H286.094V136.968H287.094ZM287.094 146.12H286.094V147.12H287.094V146.12ZM304.822 146.12H305.822V145.12H304.822V146.12ZM304.822 154.696V155.696H305.822V154.696H304.822ZM287.094 154.696V153.696H286.094V154.696H287.094ZM287.094 164.36H286.094V165.36H287.094V164.36ZM307.766 164.36H308.766V163.36H307.766V164.36ZM307.766 173V174H308.766V173H307.766ZM278.366 173V128.328H276.366V173H278.366ZM277.366 129.328H307.766V127.328H277.366V129.328ZM306.766 128.328V136.968H308.766V128.328H306.766ZM307.766 135.968H287.094V137.968H307.766V135.968ZM286.094 136.968V146.12H288.094V136.968H286.094ZM287.094 147.12H304.822V145.12H287.094V147.12ZM303.822 146.12V154.696H305.822V146.12H303.822ZM304.822 153.696H287.094V155.696H304.822V153.696ZM286.094 154.696V164.36H288.094V154.696H286.094ZM287.094 165.36H307.766V163.36H287.094V165.36ZM306.766 164.36V173H308.766V164.36H306.766ZM307.766 172H277.366V174H307.766V172Z" fill="#352F2F" mask="url(#path-1-outside-1_436_64)"/>
</g>
<rect x="115.349" y="61.8275" width="27.5116" height="57.4061" rx="2" fill="#352F2F"/>
<rect x="147.093" y="38.0731" width="14.8139" height="81.1604" rx="2" fill="#352F2F"/>
<rect x="166.14" y="61.8275" width="27.5116" height="57.4061" rx="2" fill="#352F2F"/>
<rect x="166.14" y="38.0731" width="33.8604" height="21.7747" rx="2" fill="#352F2F"/>
<rect x="109" y="38.0731" width="33.8604" height="21.7747" rx="2" fill="#352F2F"/>
<path d="M156.227 38.2888C156.774 39.2032 155.606 40.1567 154.712 39.5259L134.748 25.446C134.222 25.0746 134.19 24.3465 134.683 23.9444L142.436 17.6158C142.929 17.2138 143.696 17.342 144.018 17.8803L156.227 38.2888Z" fill="#352F2F"/>
<path d="M155.488 39.3893C154.628 40.1435 153.325 39.2028 153.888 38.2337L169.478 11.3778C169.784 10.8498 170.517 10.6982 171.018 11.0595L179.262 17.0148C179.763 17.376 179.791 18.0777 179.323 18.4887L155.488 39.3893Z" fill="#352F2F"/>
<defs>
<filter id="filter0_d_436_64" x="0.927979" y="127.56" width="310.838" height="65.216" filterUnits="userSpaceOnUse" color-interpolation-filters="sRGB">
<feFlood flood-opacity="0" result="BackgroundImageFix"/>
<feColorMatrix in="SourceAlpha" type="matrix" values="0 0 0 0 0 0 0 0 0 0 0 0 0 0 0 0 0 0 127 0" result="hardAlpha"/>
<feOffset dy="4"/>
<feGaussianBlur stdDeviation="2"/>
<feComposite in2="hardAlpha" operator="out"/>
<feColorMatrix type="matrix" values="0 0 0 0 0 0 0 0 0 0 0 0 0 0 0 0 0 0 0.25 0"/>
<feBlend mode="normal" in2="BackgroundImageFix" result="effect1_dropShadow_436_64"/>
<feBlend mode="normal" in="SourceGraphic" in2="effect1_dropShadow_436_64" result="shape"/>
</filter>
</defs>
</svg>
